<?xml version="1.0" encoding="UTF-8"?><svg id="Layer_1" xmlns="http://www.w3.org/2000/svg" viewBox="0 0 800 800"><path d="M400,332.3c-18.23,0-33,14.77-33,33v69.41c0,18.23,14.77,33,33,33s33-14.77,33-33v-69.41c0-18.23-14.77-33-33-33Z"/><path d="M400,540.52c-18.23,0-33,14.77-33,33v69.41c0,18.22,14.77,33,33,33s33-14.78,33-33v-69.41c0-18.23-14.77-33-33-33Z"/><path d="M400,124.07c-18.23,0-33,14.78-33,33v69.41c0,18.23,14.77,33,33,33s33-14.77,33-33v-69.41c0-18.22-14.77-33-33-33Z"/><path d="M689.91,195.99c-12.34-5.1-26.53-2.27-35.97,7.17l-173.31,173.52c-12.87,12.88-12.87,33.76,0,46.64l173.31,173.52c6.31,6.32,14.76,9.68,23.36,9.68,4.25,0,8.53-.82,12.61-2.51,12.34-5.11,20.38-17.14,20.38-30.49V226.48c0-13.35-8.04-25.39-20.38-30.49ZM644.29,493.78l-93.67-93.78,93.67-93.78v187.56Z"/><path d="M146.05,203.16c-9.43-9.45-23.63-12.28-35.97-7.17-12.34,5.11-20.38,17.14-20.38,30.49v347.04c0,13.35,8.04,25.39,20.38,30.49,4.08,1.69,8.36,2.51,12.61,2.51,8.59,0,17.04-3.36,23.36-9.68l173.31-173.52c12.87-12.88,12.87-33.76,0-46.64l-173.31-173.52ZM155.71,493.78v-187.56l93.67,93.78-93.67,93.78Z"/></svg>