<?xml version="1.0" encoding="UTF-8"?><svg id="Layer_1" xmlns="http://www.w3.org/2000/svg" viewBox="0 0 800 800"><path d="M266.33,400c0-18.23-14.77-33-33-33h-66.67c-18.23,0-33,14.77-33,33s14.77,33,33,33h66.67c18.23,0,33-14.77,33-33Z"/><path d="M633.33,367h-66.67c-18.23,0-33,14.77-33,33s14.77,33,33,33h66.67c18.23,0,33-14.77,33-33s-14.77-33-33-33Z"/><path d="M366.67,367c-18.23,0-33,14.77-33,33s14.77,33,33,33h66.67c18.23,0,33-14.77,33-33s-14.77-33-33-33h-66.67Z"/><path d="M423.57,478.95c-6.21-6.33-14.7-9.9-23.57-9.9s-17.36,3.57-23.57,9.9l-166.67,170.08c-9.3,9.49-12,23.63-6.85,35.88,5.15,12.25,17.14,20.22,30.42,20.22h333.33c13.29,0,25.28-7.97,30.42-20.22,5.15-12.25,2.44-26.39-6.85-35.88l-166.67-170.08ZM311.87,639.13l88.13-89.93,88.13,89.93h-176.25Z"/><path d="M376.43,321.05c6.21,6.33,14.7,9.9,23.57,9.9s17.36-3.57,23.57-9.9l166.67-170.08c9.3-9.49,12-23.63,6.85-35.88-5.15-12.25-17.14-20.22-30.42-20.22H233.33c-13.29,0-25.28,7.97-30.42,20.22-5.15,12.25-2.44,26.39,6.85,35.88l166.67,170.08ZM488.13,160.87l-88.13,89.93-88.13-89.93h176.25Z"/></svg>