<?xml version="1.0" encoding="UTF-8"?><svg id="Layer_1" xmlns="http://www.w3.org/2000/svg" viewBox="0 0 800 800"><path d="M749.22,600v19.7h-128.48v-65.23h79.26v-15.63h-100v61.16h-329.29l54.28-54.28h-100.36v-41.06l-24.63,24.63v-27.88h-99.28v-65.23h99.28v-216.02h-99.28v-65.23h128.48v45.07h263.06v-45.07h128.48v65.23h-111.61l-41,41h44.44v65.23h-109.67l-41,41h98.21v43.21l112.64-112.64h-16.25v-65.23h128.48v65.23h-84.98v65.01h64.24v65.23h-64.24v45.42h100V140.44h-121.32v-40.44h-216.87v40.44h-128.48v-40.44h-33.33V0h-100v28.1h64.96v65.23h-64.96v6.67H0v100h100v81.75h85.61v65.23h-85.61v315.53h64.96v37.49h219.14v-40.44h128.48v40.44h32.37v-18.65h128.48v65.23h-73.42v53.42h100v-100h100v-100h-50.78ZM264.24,647.94h-128.48v-65.23h128.48v65.23Z"/><polygon points="331.64 397.65 248.8 480.49 353.11 480.49 353.11 517.6 438.1 432.61 331.64 432.61 331.64 397.65"/><polygon points="439.52 219.19 551.13 219.19 551.13 153.97 422.66 153.97 422.66 199.04 459.68 199.04 439.52 219.19"/><rect x="100" y="28.1" width="64.96" height="65.23"/><rect x="163.64" y="100" width="128.48" height="40.44"/><polygon points="229.2 200 229.2 154.93 100.72 154.93 100.72 220.16 200 220.16 200 200 229.2 200"/><rect x="100" y="281.75" width="85.61" height="65.23"/><rect x="100.72" y="436.18" width="99.28" height="65.23"/><rect x="100" y="662.51" width="64.96" height="37.49"/><rect x="335.76" y="657.19" width="128.48" height="40.44"/><polygon points="331.64 432.61 438.1 432.61 460.12 410.59 460.12 367.39 361.9 367.39 331.64 397.65 331.64 432.61"/><polygon points="556.39 297.95 641.37 297.95 641.37 232.72 512.89 232.72 512.89 297.95 529.14 297.95 556.39 270.71 556.39 297.95"/><polygon points="471.48 326.39 471.48 261.16 427.04 261.16 361.81 326.39 471.48 326.39"/><rect x="486.89" y="473.61" width="100" height="65.23"/><rect x="505.8" y="100" width="121.32" height="40.44"/><polygon points="535.76 619.7 664.24 619.7 664.24 600 615.02 600 615.02 554.47 535.76 554.47 535.76 619.7"/><polygon points="615.37 681.35 486.89 681.35 486.89 700 541.95 700 541.95 746.58 615.37 746.58 615.37 681.35"/><rect x="135.76" y="582.71" width="128.48" height="65.23"/><polygon points="328.48 480.49 224.16 480.49 204.57 500.09 204.57 501.41 203.25 501.41 200 504.66 200 545.72 300.36 545.72 328.48 517.6 328.48 480.49"/><polygon points="229.2 501.41 229.2 500.09 227.88 501.41 229.2 501.41"/><rect x="567.88" y="362.96" width="64.24" height="65.23"/></svg>