<?xml version="1.0" encoding="UTF-8"?><svg id="Layer_1" xmlns="http://www.w3.org/2000/svg" viewBox="0 0 800 800"><path d="M608.38,134.89c-33.06-24.57-70.13-42.25-110.19-52.53-17.65-4.53-35.64,6.1-40.17,23.76-4.53,17.65,6.1,35.64,23.75,40.17,65.26,16.76,119.91,58.02,153.89,116.19,33.73,57.74,42.96,125.15,25.98,189.83-16.98,64.68-58.12,118.87-115.86,152.6-19.01,11.1-39.32,19.61-60.35,25.37l43.41-50.16c11.93-13.78,10.42-34.62-3.36-46.55-13.78-11.93-34.62-10.42-46.55,3.36l-91.52,105.75c-11.93,13.78-10.42,34.62,3.35,46.54l9.03,7.82s.03.03.05.04l96.67,83.67c6.24,5.4,13.93,8.05,21.58,8.05,9.25,0,18.44-3.87,24.97-11.41,11.93-13.78,10.42-34.62-3.36-46.55l-41.29-35.73c28.14-7.27,55.32-18.42,80.64-33.22,72.96-42.62,124.95-111.11,146.4-192.83,21.45-81.73,9.79-166.92-32.83-239.88-21.68-37.12-50.04-68.84-84.28-94.29Z"/><path d="M278.3,627.39c-.05-.53-.12-1.07-.2-1.61-.08-.53-.17-1.06-.28-1.59-.1-.53-.22-1.06-.36-1.58-.13-.52-.27-1.04-.43-1.55-.16-.52-.33-1.03-.51-1.54-.18-.5-.37-1.01-.58-1.5-.21-.5-.42-1-.65-1.48-.23-.49-.48-.97-.73-1.44-.25-.48-.52-.95-.79-1.41-.28-.46-.57-.92-.86-1.37-.3-.45-.61-.89-.93-1.33-.32-.43-.66-.86-1-1.28-.34-.41-.69-.83-1.06-1.23-.36-.4-.73-.79-1.12-1.18s-.77-.75-1.18-1.12c-.39-.36-.81-.71-1.23-1.06-.41-.34-.84-.67-1.28-.99-.43-.32-.87-.63-1.32-.93-.45-.3-.91-.59-1.37-.86-.46-.28-.93-.54-1.41-.79-.47-.26-.96-.5-1.44-.73-.49-.23-.98-.45-1.48-.65-.49-.21-1-.4-1.51-.59-.5-.18-1.02-.35-1.53-.5-.51-.16-1.04-.31-1.56-.44-.52-.13-1.05-.25-1.57-.36-.53-.1-1.07-.2-1.6-.28-.53-.08-1.07-.15-1.61-.2-.53-.05-1.08-.09-1.61-.12-1.08-.06-2.18-.06-3.26,0-.54.03-1.08.07-1.62.12-.53.05-1.07.12-1.61.2-.53.08-1.06.18-1.59.28-.53.11-1.06.23-1.58.36-.52.13-1.04.28-1.55.44-.52.15-1.03.32-1.54.5-.5.19-1.01.38-1.5.59-.5.2-.99.42-1.48.65-.48.23-.97.47-1.44.73-.48.25-.95.51-1.41.79-.46.27-.92.56-1.37.86-.45.3-.89.61-1.32.93-.44.32-.87.65-1.28.99-.42.35-.84.7-1.24,1.06-.4.37-.79.74-1.17,1.12s-.76.78-1.13,1.18c-.36.4-.71.82-1.06,1.23-.34.42-.67.85-.99,1.28-.32.44-.63.88-.93,1.33-.3.45-.59.91-.86,1.37-.27.46-.54.93-.79,1.41-.26.47-.5.95-.73,1.44-.23.48-.45.98-.65,1.48-.21.49-.4,1-.58,1.5-.19.51-.36,1.02-.51,1.54-.16.51-.3,1.03-.44,1.55-.13.52-.25,1.05-.35,1.58-.11.53-.21,1.06-.29,1.59-.08.54-.14,1.08-.2,1.61-.05.54-.09,1.08-.12,1.62s-.04,1.09-.04,1.63,0,1.08.04,1.62.07,1.09.12,1.62c.06.54.12,1.08.21,1.61.08.53.17,1.07.28,1.59.1.53.22,1.06.35,1.58.14.52.28,1.05.44,1.56.15.51.32,1.03.51,1.53.18.51.37,1.01.58,1.51.2.49.42.99.65,1.48.23.48.47.97.73,1.44.25.47.52.95.79,1.41.28.46.57.92.86,1.37.3.44.61.89.93,1.32.32.44.66.87,1,1.28.34.42.69.83,1.05,1.23.37.4.74.8,1.13,1.18.38.38.77.76,1.17,1.12.4.36.82.72,1.24,1.06.41.34.84.68,1.28,1,.43.31.87.63,1.32.92.45.3.91.59,1.37.87.46.27.93.54,1.41.79.47.25.96.5,1.44.73.49.22.98.44,1.48.65.49.2,1,.4,1.5.58.51.18,1.02.35,1.54.51.51.16,1.03.3,1.55.43.52.14,1.05.26,1.58.36.53.11,1.06.2,1.59.28.54.08,1.08.15,1.61.2.54.06,1.08.1,1.62.13.54.02,1.09.04,1.63.04s1.09-.02,1.63-.04c.53-.03,1.08-.07,1.61-.13.54-.05,1.08-.12,1.61-.2.53-.08,1.07-.17,1.6-.28.52-.1,1.05-.22,1.57-.36.52-.13,1.05-.27,1.56-.43.51-.16,1.03-.33,1.53-.51.51-.18,1.02-.38,1.51-.58.5-.21.99-.43,1.48-.65.48-.23.97-.48,1.44-.73.48-.25.95-.52,1.41-.79.46-.28.92-.57,1.37-.87.45-.29.89-.61,1.32-.92.44-.32.87-.66,1.28-1,.42-.34.84-.7,1.23-1.06.41-.36.8-.74,1.18-1.12.39-.38.76-.78,1.12-1.18.37-.4.72-.81,1.06-1.23.34-.41.68-.84,1-1.28.32-.43.63-.88.93-1.32.29-.45.58-.91.86-1.37.27-.46.54-.94.79-1.41s.5-.96.73-1.44c.23-.49.44-.99.65-1.48.21-.5.4-1,.58-1.51.18-.5.35-1.02.51-1.53.16-.51.3-1.04.43-1.56.14-.52.26-1.05.36-1.58.11-.52.2-1.06.28-1.59.08-.53.15-1.07.2-1.61.06-.53.1-1.08.13-1.62.02-.54.04-1.08.04-1.62s-.02-1.09-.04-1.63c-.03-.54-.07-1.08-.13-1.62Z"/><path d="M138,524.66c-14.8,10.63-18.19,31.25-7.56,46.06,6.45,8.97,16.57,13.75,26.83,13.75,6.67,0,13.4-2.02,19.23-6.2,14.8-10.63,18.18-31.25,7.55-46.05-10.63-14.81-31.25-18.19-46.05-7.56Z"/><path d="M184.76,191.24c-14.4-11.17-35.13-8.56-46.3,5.84-11.18,14.4-8.56,35.13,5.84,46.3,6.01,4.67,13.14,6.93,20.2,6.93,9.85,0,19.59-4.39,26.1-12.77,11.17-14.39,8.56-35.12-5.84-46.3Z"/><path d="M142.66,436.4c-3.46-17.89-20.76-29.6-38.66-26.15-17.89,3.46-29.6,20.76-26.15,38.66,3.05,15.78,16.87,26.75,32.37,26.75,2.07,0,4.18-.19,6.29-.6,17.89-3.46,29.6-20.76,26.15-38.66Z"/><path d="M239.55,111.78c-16.06,8.62-22.08,28.63-13.46,44.69,5.96,11.08,17.34,17.38,29.1,17.38,5.28,0,10.62-1.26,15.59-3.93,16.06-8.63,22.08-28.63,13.45-44.69-8.62-16.05-28.63-22.08-44.68-13.45Z"/><path d="M105.38,356.22c2.6.63,5.21.93,7.77.93,14.89,0,28.4-10.14,32.05-25.25,4.28-17.72-6.61-35.55-24.32-39.83-17.72-4.28-35.55,6.61-39.83,24.33-4.28,17.71,6.61,35.54,24.33,39.82Z"/><path d="M381.75,138.29c.49-.2.99-.42,1.48-.65.48-.23.97-.47,1.44-.72.47-.26.95-.52,1.41-.8.46-.27.92-.56,1.37-.86.44-.3.89-.61,1.32-.93.44-.32.87-.65,1.28-.99.42-.35.84-.7,1.23-1.06.41-.36.8-.74,1.18-1.12.39-.38.76-.78,1.12-1.18.37-.4.72-.82,1.06-1.23.34-.42.68-.85,1-1.28.32-.44.63-.88.93-1.33.29-.45.58-.91.86-1.37.27-.46.54-.93.79-1.41.25-.47.5-.95.73-1.44.23-.48.45-.98.65-1.48.21-.49.4-1,.58-1.5.18-.51.35-1.02.51-1.54.16-.51.3-1.03.43-1.55.14-.52.26-1.05.36-1.58.11-.53.2-1.06.28-1.59.08-.54.15-1.08.2-1.61.06-.54.1-1.08.13-1.62.02-.54.04-1.09.04-1.63s-.02-1.08-.04-1.62c-.03-.54-.07-1.09-.13-1.62-.05-.54-.12-1.08-.2-1.61-.08-.53-.17-1.07-.28-1.6-.1-.52-.22-1.05-.36-1.57-.13-.52-.27-1.05-.43-1.56-.16-.51-.33-1.03-.51-1.53-.18-.51-.37-1.01-.58-1.51-.2-.49-.42-.99-.65-1.48-.23-.48-.48-.97-.73-1.44-.25-.47-.52-.95-.79-1.41-.28-.46-.57-.92-.86-1.37-.3-.44-.61-.89-.93-1.32-.32-.43-.66-.87-1-1.28-.34-.42-.69-.83-1.06-1.23-.36-.4-.73-.8-1.12-1.18-.38-.38-.77-.76-1.18-1.12-.39-.36-.81-.72-1.23-1.06-.41-.34-.84-.68-1.28-1-.43-.32-.88-.63-1.32-.93-.45-.29-.91-.58-1.37-.86-.46-.27-.94-.54-1.41-.79s-.96-.5-1.44-.73c-.49-.23-.99-.44-1.48-.65-.5-.21-1-.4-1.51-.58-.5-.18-1.02-.35-1.53-.51s-1.04-.3-1.56-.43c-.52-.14-1.05-.26-1.57-.36-.53-.11-1.07-.2-1.6-.28-.53-.08-1.07-.15-1.61-.21-.53-.05-1.08-.09-1.61-.12-1.08-.05-2.18-.05-3.26,0-.53.03-1.08.07-1.62.12-.53.06-1.07.13-1.61.21-.53.08-1.06.17-1.59.28-.52.1-1.06.22-1.58.36-.52.13-1.04.27-1.55.43-.52.16-1.03.33-1.54.51-.5.18-1.01.37-1.5.58-.5.21-.99.42-1.48.65-.48.23-.97.48-1.44.73-.48.25-.95.52-1.41.79-.46.28-.92.57-1.37.86-.45.3-.89.61-1.33.93-.43.32-.86.66-1.28,1-.41.34-.83.7-1.23,1.06-.4.36-.8.74-1.18,1.12s-.76.78-1.12,1.18c-.36.4-.72.81-1.06,1.23-.34.41-.67.85-.99,1.28-.32.43-.63.88-.93,1.32-.3.45-.59.91-.86,1.37-.28.46-.54.94-.8,1.41-.25.47-.49.96-.72,1.44-.23.49-.45.99-.65,1.48-.21.5-.4,1-.59,1.51-.18.5-.35,1.02-.5,1.53-.16.51-.31,1.04-.44,1.56s-.25,1.05-.36,1.57c-.1.53-.2,1.07-.28,1.6-.08.53-.14,1.07-.2,1.61-.05.53-.09,1.08-.12,1.62s-.04,1.08-.04,1.62,0,1.09.04,1.63.07,1.08.12,1.62c.06.53.12,1.07.2,1.61.08.53.18,1.06.28,1.59.11.53.23,1.06.36,1.58s.28,1.04.44,1.55c.15.52.32,1.03.5,1.54.19.5.38,1.01.59,1.5.2.5.42,1,.65,1.48.23.49.47.97.72,1.44.26.48.52.95.8,1.41.27.46.56.92.86,1.37.3.45.61.89.93,1.33.32.43.65.86.99,1.28.34.41.7.83,1.06,1.23.36.4.74.8,1.12,1.18.38.38.78.76,1.18,1.12s.82.71,1.23,1.06c.42.34.85.67,1.28.99.44.32.88.63,1.33.93.45.3.91.59,1.37.86.46.28.93.54,1.41.8.47.25.96.49,1.44.72.49.23.98.45,1.48.65.49.21,1,.41,1.5.59.51.18,1.02.35,1.54.5.51.16,1.03.31,1.55.44.52.13,1.06.25,1.58.36.53.1,1.06.2,1.59.28.54.08,1.08.15,1.61.2.54.05,1.09.09,1.62.12.54.03,1.09.04,1.63.04s1.09,0,1.63-.04c.53-.03,1.08-.07,1.61-.12.54-.05,1.08-.12,1.61-.2.53-.08,1.07-.18,1.6-.28.52-.11,1.05-.23,1.57-.36.52-.13,1.05-.28,1.56-.44.51-.15,1.03-.32,1.53-.5.51-.18,1.01-.38,1.51-.59Z"/></svg>