<?xml version="1.0" encoding="UTF-8"?><svg id="Layer_1" xmlns="http://www.w3.org/2000/svg" viewBox="0 0 800 800"><path d="M685.51,81.49c-18.23,0-33,14.77-33,33v75.47c-7.64-6.97-15.95-14.13-24.9-21.29-31.32-25.05-64.18-45.07-97.67-59.5-42.63-18.36-86.35-27.67-129.94-27.67-85.08,0-165.06,33.13-225.22,93.29-60.16,60.16-93.29,140.15-93.29,225.22,0,25.94,3.13,51.75,9.31,76.72,1.22,4.93,3.49,9.32,6.51,13,0,0,0,0,0,0,0,0,0,0,0,0,.33.4.67.79,1.01,1.18.01.02.03.03.04.05,0,0,.02.02.03.03.33.36.67.72,1.01,1.06.03.03.06.06.08.09,0,0,.02.01.02.02.38.37.76.74,1.15,1.1,0,0,0,0,0,0,0,0,.01.01.02.02.36.33.74.65,1.11.96.03.03.06.06.1.08.06.05.11.09.17.13.36.29.73.58,1.1.85,0,0,0,0,0,0,0,0,0,0,0,0,5.59,4.14,12.45,6.5,19.62,6.5.98,0,1.97-.06,2.96-.15.1-.01.21-.01.31-.02.05,0,.1-.01.15-.02.4-.04.79-.09,1.19-.15.09-.01.18-.02.27-.03.11-.02.22-.04.33-.06.39-.06.78-.13,1.17-.21.03,0,.07-.01.1-.02.1-.02.19-.05.29-.07.39-.08.79-.16,1.18-.25,15.58-3.85,25.8-18.18,25.04-33.63,0-.01,0-.02,0-.03,0-.03,0-.06,0-.09-.11-2.06-.41-4.13-.92-6.21-4.9-19.79-7.38-40.27-7.38-60.87,0-139.24,113.28-252.51,252.51-252.51,34.24,0,68.85,7.36,102.87,21.88,27.9,11.9,55.52,28.63,82.09,49.7,9.47,7.51,18.13,15.05,25.94,22.31h-62.43c-18.22,0-33,14.77-33,33s14.78,33,33,33h136.73s.05,0,.07,0h.24c.69,0,1.38-.03,2.06-.07.19-.01.39-.03.58-.04.75-.06,1.5-.14,2.23-.25.02,0,.03,0,.05,0,.84-.12,1.66-.29,2.47-.47.07-.02.13-.03.2-.05,2.56-.6,5-1.5,7.28-2.66.07-.04.15-.08.22-.11.73-.37,1.44-.77,2.14-1.2.04-.02.08-.05.11-.07.63-.39,1.24-.8,1.85-1.23.12-.08.23-.16.35-.25.59-.43,1.17-.89,1.73-1.36.14-.12.27-.24.41-.36.54-.47,1.07-.96,1.58-1.46.04-.04.08-.08.12-.12.52-.52,1.02-1.07,1.51-1.63.1-.12.21-.24.31-.36.49-.58.96-1.17,1.41-1.78.05-.07.1-.15.16-.22.46-.63.89-1.28,1.3-1.94.01-.02.02-.04.04-.06.43-.69.83-1.41,1.21-2.14.03-.06.06-.11.09-.17.75-1.47,1.39-3,1.92-4.58.01-.04.03-.08.04-.13.26-.79.49-1.59.69-2.4.01-.04.02-.09.03-.13.19-.78.35-1.57.48-2.38,0-.05.02-.09.03-.14.12-.78.22-1.57.29-2.37.01-.16.02-.31.04-.47.06-.8.1-1.6.1-2.41h0V114.49c0-18.23-14.78-33-33-33Z"/><path d="M432.84,682.27c-.06-.54-.13-1.08-.21-1.61-.08-.53-.17-1.07-.28-1.6-.1-.52-.22-1.05-.35-1.57-.14-.52-.28-1.05-.44-1.56s-.33-1.03-.51-1.53c-.18-.51-.37-1.01-.58-1.51-.2-.49-.42-.99-.65-1.48-.23-.48-.48-.97-.73-1.44s-.52-.95-.79-1.41c-.28-.46-.57-.92-.86-1.37-.3-.44-.61-.89-.93-1.32-.32-.43-.66-.87-1-1.28-.34-.42-.69-.83-1.05-1.23-.37-.4-.74-.8-1.13-1.18-.38-.38-.77-.76-1.18-1.12-.39-.37-.81-.72-1.23-1.06-.41-.34-.84-.68-1.28-1-.43-.31-.87-.63-1.32-.93-.45-.29-.91-.58-1.37-.86-.46-.27-.93-.54-1.41-.79-.47-.25-.96-.5-1.44-.73-.49-.22-.98-.44-1.48-.65-.49-.2-1-.4-1.51-.58-.5-.18-1.02-.35-1.53-.51-.51-.16-1.04-.3-1.56-.43-.52-.13-1.05-.26-1.57-.36-.53-.11-1.07-.2-1.6-.28s-1.07-.15-1.61-.2c-.53-.06-1.08-.1-1.61-.13-1.08-.05-2.18-.05-3.26,0-.53.03-1.08.07-1.62.13-.53.05-1.07.12-1.6.2-.53.08-1.07.17-1.6.28-.52.1-1.05.23-1.58.36-.51.13-1.04.27-1.55.43-.51.16-1.03.33-1.54.51-.5.18-1.01.38-1.5.58-.5.21-.99.43-1.48.65-.48.23-.97.48-1.44.73-.48.25-.95.52-1.41.79-.46.28-.92.57-1.37.86-.45.3-.89.62-1.32.93-.44.32-.87.66-1.28,1-.42.34-.84.69-1.24,1.06-.4.36-.79.74-1.17,1.12-.39.38-.76.78-1.13,1.18-.36.4-.71.81-1.05,1.23-.34.41-.68.85-1,1.28-.32.43-.63.88-.93,1.32-.29.45-.58.91-.86,1.37-.27.46-.54.94-.79,1.41-.26.47-.5.96-.73,1.44-.23.49-.45.99-.65,1.48-.21.5-.4,1-.58,1.51-.18.5-.36,1.02-.51,1.53-.16.51-.3,1.04-.44,1.56-.13.52-.25,1.05-.35,1.57-.11.53-.2,1.07-.28,1.6-.08.53-.15,1.07-.21,1.61-.05.53-.09,1.08-.12,1.62-.03.54-.04,1.08-.04,1.62s0,1.09.04,1.63c.03.54.07,1.08.12,1.62.06.53.13,1.07.21,1.61.08.53.17,1.06.28,1.59.1.53.22,1.06.35,1.58.14.52.28,1.04.44,1.55.15.52.33,1.03.51,1.54.18.5.37,1.01.58,1.5.2.5.42,1,.65,1.48.23.49.47.97.73,1.44.25.48.52.95.79,1.41.28.46.57.92.86,1.37.3.45.61.89.93,1.33.32.43.66.86,1,1.28.34.41.69.83,1.05,1.23.37.4.74.8,1.13,1.18.38.38.77.75,1.17,1.12.4.36.82.72,1.24,1.06.41.34.84.67,1.28.99.43.32.87.63,1.32.93.45.3.91.59,1.37.86.46.28.93.54,1.41.79.47.26.96.5,1.44.73.49.23.98.45,1.48.65.49.21,1,.41,1.5.59.51.18,1.03.35,1.54.5.51.16,1.04.31,1.55.44.53.13,1.06.25,1.58.36.53.1,1.07.2,1.6.28.53.08,1.07.15,1.6.2.54.05,1.09.09,1.62.12.54.03,1.09.04,1.63.04s1.09,0,1.63-.04c.53-.03,1.08-.07,1.61-.12.54-.05,1.08-.12,1.61-.2s1.07-.18,1.6-.28c.52-.11,1.05-.23,1.57-.36.52-.13,1.05-.28,1.56-.44.51-.15,1.03-.32,1.53-.5.51-.18,1.02-.38,1.51-.59.5-.2.99-.42,1.48-.65.48-.23.97-.47,1.44-.73.48-.25.95-.51,1.41-.79.46-.27.92-.56,1.37-.86.45-.3.89-.61,1.32-.93.44-.32.87-.65,1.28-.99.42-.34.84-.7,1.23-1.06.41-.37.8-.74,1.18-1.12.39-.38.76-.78,1.13-1.18.36-.4.71-.82,1.05-1.23.34-.42.68-.85,1-1.28.32-.44.63-.88.93-1.33.29-.45.58-.91.86-1.37.27-.46.54-.93.79-1.41.25-.47.5-.95.73-1.44.23-.48.45-.98.65-1.48.21-.49.4-1,.58-1.5.18-.51.35-1.02.51-1.54.16-.51.3-1.03.44-1.55.13-.52.25-1.05.35-1.58.11-.53.2-1.06.28-1.59.08-.54.15-1.08.21-1.61.05-.54.09-1.08.12-1.62.02-.54.04-1.09.04-1.63s-.02-1.08-.04-1.62c-.03-.54-.07-1.09-.12-1.62Z"/><path d="M291.86,628.26c-16.47-7.82-36.15-.81-43.96,15.66-7.82,16.47-.81,36.15,15.66,43.96,4.56,2.17,9.38,3.2,14.12,3.2,12.35,0,24.19-6.96,29.84-18.86,7.82-16.46.8-36.15-15.66-43.96Z"/><path d="M158.11,555.29c-14.09,11.55-16.16,32.34-4.61,46.44,6.52,7.96,16,12.09,25.55,12.09,7.36,0,14.76-2.45,20.89-7.48,14.1-11.55,16.16-32.34,4.61-46.44-11.54-14.1-32.34-16.16-46.44-4.61Z"/></svg>