<?xml version="1.0" encoding="UTF-8"?><svg id="Layer_1" xmlns="http://www.w3.org/2000/svg" viewBox="0 0 800 800"><path d="M400,81.49c-43.59,0-87.31,9.31-129.94,27.67-33.5,14.43-66.36,34.45-97.67,59.5-8.95,7.16-17.26,14.32-24.9,21.29v-75.47c0-18.23-14.77-33-33-33s-33,14.77-33,33v159.89h0c0,.81.04,1.61.1,2.4.01.16.02.32.04.48.07.79.16,1.58.28,2.35.01.07.02.13.04.2.13.76.28,1.52.46,2.26.02.08.04.16.06.24.19.77.41,1.53.65,2.28.03.11.07.21.11.32.25.73.51,1.46.81,2.17.01.03.02.05.03.08.29.69.61,1.36.94,2.02.09.19.19.38.29.56.32.6.65,1.2,1,1.78.14.23.3.46.44.69.23.36.47.71.71,1.06.28.41.58.81.88,1.2.24.31.48.63.73.93.29.36.6.7.91,1.05.1.11.2.22.3.33.64.69,1.3,1.35,1.99,1.99.02.02.04.04.06.05,1.16,1.05,2.4,2.03,3.7,2.91.01,0,.03.02.04.03,2.09,1.41,4.37,2.59,6.79,3.51.2.07.39.15.59.22.32.11.63.24.95.35.51.16,1.03.29,1.55.43.11.03.22.06.33.09.5.13,1.01.24,1.51.35.05,0,.1.02.14.03,2.47.5,4.96.72,7.43.65h136.16c18.22,0,33-14.77,33-33s-14.78-33-33-33h-62.43c7.81-7.25,16.47-14.79,25.94-22.31,26.58-21.07,54.2-37.8,82.09-49.7,34.02-14.52,68.63-21.88,102.87-21.88,139.24,0,252.51,113.28,252.51,252.51,0,20.6-2.48,41.08-7.38,60.87-.37,1.5-.63,3.01-.78,4.5,0,.06-.02.12-.02.18,0,.02,0,.04,0,.06-.05.47-.08.95-.11,1.42,0,.05,0,.1-.01.14,0,0,0,.02,0,.03-.44,8.87,2.75,17.38,8.49,23.74,0,0,0,0,0,.01.03.03.06.06.08.09,4.25,4.66,9.87,8.16,16.45,9.79.4.1.81.18,1.21.26.09.02.17.04.26.06.03,0,.06,0,.09.02.4.08.8.15,1.2.21.1.02.21.04.31.05.08.01.17.02.25.03.41.06.81.11,1.22.15.05,0,.09.01.14.02.1.01.19.01.29.02,1,.09,1.99.15,2.98.15,8.24,0,16.07-3.12,22.03-8.47.03-.03.07-.06.1-.09,0,0,.02-.02.03-.02.78-.71,1.52-1.45,2.23-2.23.01-.02.03-.03.04-.04.02-.02.04-.05.06-.07,3.52-3.9,6.16-8.7,7.51-14.16,6.18-24.97,9.31-50.78,9.31-76.72,0-85.08-33.13-165.06-93.29-225.22-60.16-60.16-140.15-93.29-225.22-93.29Z"/><path d="M641.88,555.29c-14.1-11.55-34.89-9.48-46.44,4.61-11.55,14.1-9.48,34.89,4.62,46.45,6.13,5.02,13.53,7.47,20.89,7.47,9.55,0,19.02-4.13,25.55-12.09,11.55-14.1,9.48-34.89-4.62-46.44Z"/><path d="M508.14,628.26c-16.47,7.81-23.48,27.5-15.66,43.96,5.65,11.9,17.49,18.86,29.83,18.86,4.75,0,9.56-1.03,14.13-3.2,16.47-7.81,23.48-27.49,15.66-43.96-7.81-16.46-27.5-23.48-43.96-15.66Z"/><path d="M432.84,682.27c-.06-.54-.13-1.08-.21-1.61-.08-.53-.17-1.07-.28-1.6-.1-.52-.22-1.05-.35-1.57-.14-.52-.28-1.05-.44-1.56s-.33-1.03-.51-1.53c-.18-.51-.37-1.01-.58-1.51-.2-.49-.42-.99-.65-1.48-.23-.48-.48-.97-.73-1.44s-.52-.95-.79-1.41c-.28-.46-.57-.92-.86-1.37-.3-.44-.61-.89-.93-1.32-.32-.43-.66-.87-1-1.28-.34-.42-.69-.83-1.06-1.23-.36-.4-.73-.8-1.12-1.18-.38-.38-.77-.76-1.18-1.12-.39-.37-.81-.72-1.23-1.06-.41-.34-.84-.68-1.28-1-.43-.31-.88-.63-1.32-.93-.45-.29-.91-.58-1.37-.86-.46-.27-.94-.54-1.41-.79-.47-.25-.96-.5-1.44-.73-.49-.22-.99-.44-1.48-.65-.5-.2-1-.4-1.51-.58-.5-.18-1.02-.35-1.53-.51-.51-.16-1.04-.3-1.56-.43-.52-.13-1.05-.26-1.57-.36-.53-.11-1.07-.2-1.6-.28s-1.07-.15-1.61-.2c-.53-.06-1.08-.1-1.61-.13-1.08-.05-2.18-.05-3.26,0-.53.03-1.08.07-1.62.13-.53.05-1.07.12-1.6.2-.54.08-1.07.17-1.6.28-.53.1-1.06.23-1.58.36-.52.13-1.04.27-1.55.43-.52.16-1.03.33-1.54.51-.5.18-1.01.38-1.5.58-.5.21-.99.43-1.48.65-.48.23-.97.48-1.44.73-.48.25-.95.52-1.41.79-.46.28-.92.57-1.37.86-.45.3-.89.62-1.33.93-.43.32-.86.66-1.28,1-.41.34-.83.69-1.23,1.06-.4.36-.8.74-1.18,1.12s-.76.78-1.12,1.18c-.36.4-.72.81-1.06,1.23-.34.41-.67.85-.99,1.28-.32.43-.63.88-.93,1.32-.3.45-.59.91-.86,1.37-.28.46-.54.94-.8,1.41-.25.47-.49.96-.72,1.44-.23.49-.45.99-.65,1.48-.21.5-.4,1-.59,1.51-.18.5-.35,1.02-.5,1.53-.16.51-.31,1.04-.44,1.56-.13.52-.25,1.05-.36,1.57-.1.53-.2,1.07-.28,1.6-.08.53-.14,1.07-.2,1.61-.05.53-.09,1.08-.12,1.62-.03.54-.04,1.08-.04,1.62s0,1.09.04,1.63c.03.54.07,1.08.12,1.62.06.53.12,1.07.2,1.61.08.53.18,1.06.28,1.59.11.53.23,1.06.36,1.58.13.52.28,1.04.44,1.55.15.52.32,1.03.5,1.54.19.5.38,1.01.59,1.5.2.5.42,1,.65,1.48.23.49.47.97.72,1.44.26.48.52.95.8,1.41.27.46.56.92.86,1.37s.61.89.93,1.33c.32.43.65.86.99,1.28.34.41.7.83,1.06,1.23.36.4.74.8,1.12,1.18s.78.75,1.18,1.12c.4.36.82.72,1.23,1.06.42.34.85.67,1.28.99.44.32.88.63,1.33.93.45.3.91.59,1.37.86.46.28.93.54,1.41.79.47.26.96.5,1.44.73.49.23.98.45,1.48.65.49.21,1,.41,1.5.59.51.18,1.02.35,1.54.5.51.16,1.03.31,1.55.44.52.13,1.05.25,1.58.36.53.1,1.06.2,1.6.28.53.08,1.07.15,1.6.2.54.05,1.09.09,1.62.12.54.03,1.09.04,1.63.04s1.09,0,1.63-.04c.53-.03,1.08-.07,1.61-.12.54-.05,1.08-.12,1.61-.2s1.07-.18,1.6-.28c.52-.11,1.05-.23,1.57-.36.52-.13,1.05-.28,1.56-.44.51-.15,1.03-.32,1.53-.5.51-.18,1.01-.38,1.51-.59.49-.2.99-.42,1.48-.65.48-.23.97-.47,1.44-.73.47-.25.95-.51,1.41-.79.46-.27.92-.56,1.37-.86.44-.3.89-.61,1.32-.93.44-.32.87-.65,1.28-.99.42-.34.84-.7,1.23-1.06.41-.37.8-.74,1.18-1.12.39-.38.76-.78,1.12-1.18.37-.4.72-.82,1.06-1.23.34-.42.68-.85,1-1.28.32-.44.63-.88.93-1.33.29-.45.58-.91.86-1.37.27-.46.54-.93.79-1.41.25-.47.5-.95.73-1.44.23-.48.45-.98.65-1.48.21-.49.4-1,.58-1.5.18-.51.35-1.02.51-1.54.16-.51.3-1.03.44-1.55.13-.52.25-1.05.35-1.58.11-.53.2-1.06.28-1.59.08-.54.15-1.08.21-1.61.05-.54.09-1.08.12-1.62s.04-1.09.04-1.63,0-1.08-.04-1.62-.07-1.09-.12-1.62Z"/></svg>